<?xml version="1.0" standalone="no"?><!DOCTYPE svg PUBLIC "-//W3C//DTD SVG 20010904//EN" "http://www.w3.org/TR/2001/REC-SVG-20010904/DTD/svg10.dtd"><svg xmlns="http://www.w3.org/2000/svg" version="1.0" width="20" height="20" viewBox="0 0 320.000000 320.000000" preserveAspectRatio="xMidYMid meet">

<g transform="translate(0.000000,320.000000) scale(0.100000,-0.100000)" fill="#000000" stroke="none">
<path d="M600 2478 l0 -233 667 -667 668 -668 -48 -48 -47 -48 95 -94 94 -94 118 117 118 117 187 -187 188 -188 95 95 95 95 -187 187 -187 187 69 72 c100 103 155 163 155 169 0 3 -40 46 -90 95 l-90 89 -48 -47 -47 -47 -665 665 -665 665 -237 0 -238 0 0 -232z m985 -658 l630 -630 -48 -47 -47 -48 -625 625 -625 625 0 53 0 52 43 0 42 0 630 -630z"/>
<path d="M1910 2495 l-215 -215 95 -95 95 -95 180 180 c177 177 181 180 223 180 l42 0 0 -53 0 -52 -175 -175 -175 -175 92 -92 93 -93 217 217 218 218 0 232 0 233 -238 0 -237 0 -215 -215z"/>
<path d="M915 1500 l-120 -120 -47 47 -48 47 -90 -89 c-50 -49 -90 -93 -90 -97 0 -4 41 -50 90 -100 50 -51 101 -103 112 -116 l22 -23 -187 -187 -187 -187 95 -95 95 -95 188 187 187 187 119 -115 119 -116 93 93 94 93 -47 48 -47 48 119 120 120 120 -93 92 -92 93 -120 -120 -120 -120 -47 48 -48 47 120 120 120 120 -95 95 -95 95 -120 -120z"/>
</g>
</svg>